<svg width="155" height="125" viewBox="0 0 155 125" fill="none" xmlns="http://www.w3.org/2000/svg">
<path d="M153.865 91.6662C154.039 92.0155 154.214 92.3648 154.214 92.8887C154.214 93.238 154.039 93.762 153.69 93.9366L123.476 123.976C123.127 124.325 122.777 124.5 122.254 124.5H1.74648C1.22254 124.5 0.873239 124.325 0.523944 123.976C0.174648 123.627 0 123.277 0 122.754C0 122.23 0 121.88 0.349296 121.531C0.698592 121.182 1.04789 121.007 1.57183 120.832C2.44507 120.832 91.6901 113.148 96.0563 112.275C98.1521 111.751 108.806 107.559 119.459 102.844C133.955 96.3817 139.718 93.238 140.417 92.3648C139.893 91.3169 133.082 87.1254 119.459 79.7901C108.456 73.8521 97.9775 68.7873 96.231 68.438C92.3887 67.5648 19.9099 64.2465 19.2113 64.2465C18.6873 64.2465 18.338 64.0718 17.9887 63.7225C17.6394 63.3732 17.4648 63.0239 17.4648 62.5C17.4648 61.9761 17.6394 61.6268 17.9887 61.2775C18.338 60.9282 18.6873 60.7535 19.2113 60.7535C19.9099 60.7535 92.2141 57.2606 96.4056 56.3873C98.3268 56.038 108.98 51.6718 119.634 46.9563C134.304 40.4944 140.068 37.3507 140.592 36.4775C139.02 33.8577 100.073 13.4239 96.231 12.5507C92.5634 11.8521 2.61972 4.16761 1.57183 3.99296C1.04789 3.99296 0.698592 3.81831 0.349296 3.46901C0 3.11972 0 2.59577 0 2.24648C0 1.72254 0.174648 1.37324 0.523944 1.02394C0.873239 0.674648 1.39718 0.5 1.74648 0.5H122.254C122.428 0.5 122.777 0.5 122.952 0.5C123.127 0.5 123.301 0.674648 123.476 0.849296L153.515 35.2549C153.865 35.6042 153.865 35.9535 154.039 36.4775C154.039 36.8268 154.039 37.3507 153.69 37.7C145.656 46.0831 132.907 60.2296 132.907 62.5C132.907 64.5958 145.307 81.0127 153.69 91.4915L153.865 91.6662Z" fill="url(#paint0_linear_2329_1121)"/>
<defs>
<linearGradient id="paint0_linear_2329_1121" x1="-3.02779e-06" y1="124.5" x2="141.189" y2="1.75944" gradientUnits="userSpaceOnUse">
<stop offset="0.177083" stop-color="#B090FF"/>
<stop offset="1" stop-color="#305DDF"/>
</linearGradient>
</defs>
</svg>
